solid mesh_3d
  facet normal 0.000000 0.000000 1.000000
    outer loop
      vertex 0.000000000000000 0.000000000000000 0.000000000000000
      vertex 1.000000000000000 0.000000000000000 0.000000000000000
      vertex 0.000000000000000 1.000000000000000 0.000000000000000
    endloop
  endfacet
  facet normal 0.000000 -1.000000 0.000000
    outer loop
      vertex 0.000000000000000 0.000000000000000 0.000000000000000
      vertex 1.000000000000000 0.000000000000000 0.000000000000000
      vertex 0.000000000000000 0.000000000000000 1.000000000000000
    endloop
  endfacet
  facet normal 1.000000 0.000000 0.000000
    outer loop
      vertex 0.000000000000000 0.000000000000000 0.000000000000000
      vertex 0.000000000000000 1.000000000000000 0.000000000000000
      vertex 0.000000000000000 0.000000000000000 1.000000000000000
    endloop
  endfacet
  facet normal 0.577350 0.577350 0.577350
    outer loop
      vertex 1.000000000000000 0.000000000000000 0.000000000000000
      vertex 0.000000000000000 1.000000000000000 0.000000000000000
      vertex 0.000000000000000 0.000000000000000 1.000000000000000
    endloop
  endfacet
  facet normal -0.707107 0.000000 -0.707107
    outer loop
      vertex 1.000000000000000 0.000000000000000 0.000000000000000
      vertex 0.000000000000000 0.000000000000000 1.000000000000000
      vertex 1.000000000000000 1.000000000000000 0.000000000000000
    endloop
  endfacet
  facet normal 0.000000 1.000000 -0.000000
    outer loop
      vertex 1.000000000000000 0.000000000000000 0.000000000000000
      vertex 0.000000000000000 0.000000000000000 1.000000000000000
      vertex 1.000000000000000 0.000000000000000 1.000000000000000
    endloop
  endfacet
  facet normal 1.000000 0.000000 0.000000
    outer loop
      vertex 1.000000000000000 0.000000000000000 0.000000000000000
      vertex 1.000000000000000 1.000000000000000 0.000000000000000
      vertex 1.000000000000000 0.000000000000000 1.000000000000000
    endloop
  endfacet
  facet normal 0.000000 0.707107 0.707107
    outer loop
      vertex 0.000000000000000 1.000000000000000 0.000000000000000
      vertex 0.000000000000000 0.000000000000000 1.000000000000000
      vertex 1.000000000000000 0.000000000000000 1.000000000000000
    endloop
  endfacet
  facet normal -1.000000 0.000000 0.000000
    outer loop
      vertex 0.000000000000000 1.000000000000000 0.000000000000000
      vertex 0.000000000000000 0.000000000000000 1.000000000000000
      vertex 0.000000000000000 1.000000000000000 1.000000000000000
    endloop
  endfacet
  facet normal -0.707107 -0.707107 0.000000
    outer loop
      vertex 0.000000000000000 1.000000000000000 0.000000000000000
      vertex 1.000000000000000 0.000000000000000 1.000000000000000
      vertex 0.000000000000000 1.000000000000000 1.000000000000000
    endloop
  endfacet
  facet normal 0.000000 -0.707107 -0.707107
    outer loop
      vertex 0.000000000000000 0.000000000000000 1.000000000000000
      vertex 1.000000000000000 1.000000000000000 0.000000000000000
      vertex 1.000000000000000 0.000000000000000 1.000000000000000
    endloop
  endfacet
  facet normal 0.000000 0.000000 1.000000
    outer loop
      vertex 0.000000000000000 0.000000000000000 1.000000000000000
      vertex 1.000000000000000 0.000000000000000 1.000000000000000
      vertex 0.000000000000000 1.000000000000000 1.000000000000000
    endloop
  endfacet
endsolid mesh_3d
